# xmcd
#
# Track frame offsets: 
#        150
#        10565
#        21114
#        32544
#        47110
#        59829
#        76581
#        92279
#        104952
#        117951
#        128718
#        144427
#        158591
#        170211
#        180883
#        192745
#        207289
#        216464
#        233937
#        243321
#        254126
#        265437
#        279286
#        292633
#
# Disc length: 4111 seconds
#
# Revision: 0
# Processed by: cddbd v1.5.2PL0 Copyright (c) Steve Scherf et al.
# Submitted via: ExactAudioCopy v0.99pb4
#
DISCID=57100d18
DTITLE=The Country Gentlemen - 25 Years
DYEAR=1980
DGENRE=Country
TTITLE0=Materhorn
TTITLE1=I Am Weary, Let Me Rest
TTITLE2=Two Little Boys
TTITLE3=The World's No Place to Live
TTITLE4=Girl From the North Country
TTITLE5=500 Miles
TTITLE6=Aunt Dinah's Quilting Party
TTITLE7=Copper Kettle
TTITLE8=Helen
TTITLE9=Little Bessie
TTITLE10=Many a Mile
TTITLE11=Come All Ye Tender Hearted
TTITLE12=Teach Your Children
TTITLE13=Where I'm Bound
TTITLE14=Redwood Hill
TTITLE15=Letter to Tom
TTITLE16=Less of Me
TTITLE17=Devil's Little Angel
TTITLE18=The Likes of You
TTITLE19=This Morning at Nine
TTITLE20=Dixieland for Me
TTITLE21=The Fields Have Turned Brown
TTITLE22=Over the Hills to the Poorhouse
TTITLE23=Come and Sit by the River
EXTD=
EXTT0=
EXTT1=
EXTT2=
EXTT3=
EXTT4=
EXTT5=
EXTT6=
EXTT7=
EXTT8=
EXTT9=
EXTT10=
EXTT11=
EXTT12=
EXTT13=
EXTT14=
EXTT15=
EXTT16=
EXTT17=
EXTT18=
EXTT19=
EXTT20=
EXTT21=
EXTT22=
EXTT23=
PLAYORDER=
